Coordinates
version=1
nRows=13
nColumns=40
inDegrees=yes

Units are S.I. units (second, meters, Newtons, ...)
Angles are in degrees.

endheader
time	pelvis_tilt	pelvis_list	pelvis_rotation	pelvis_tx	pelvis_ty	pelvis_tz	hip_flexion_r	hip_adduction_r	hip_rotation_r	knee_angle_r	knee_angle_r_beta	ankle_angle_r	subtalar_angle_r	mtp_angle_r	hip_flexion_l	hip_adduction_l	hip_rotation_l	knee_angle_l	knee_angle_l_beta	ankle_angle_l	subtalar_angle_l	mtp_angle_l	lumbar_extension	lumbar_bending	lumbar_rotation	arm_flex_r	arm_add_r	arm_rot_r	elbow_flex_r	pro_sup_r	wrist_flex_r	wrist_dev_r	arm_flex_l	arm_add_l	arm_rot_l	elbow_flex_l	pro_sup_l	wrist_flex_l	wrist_dev_l
     57.74750000	     -7.48496874	     -4.61184566	      2.29581222	      1.09824256	      0.92019027	      0.45958579	      3.09957490	     -2.16109871	    -14.87396792	     27.15049061	     27.15049061	     13.39463594	     -0.13417943	    -12.74229374	     29.22661137	     -5.12059229	     -0.36496854	     26.65148404	     26.65148404	      8.59463790	    -13.03773797	      7.72717599	     -9.20697880	      5.78042280	      4.15274586	     37.13226773	    -16.70196119	     -0.77087405	     93.81544650	     44.19540539	      0.00000000	      0.00000000	    -15.56104900	     -9.30760837	     24.93361673	     35.53932519	     43.55460527	      0.00000000	      0.00000000
     57.75942857	     -7.50500688	     -4.50453166	      2.09819408	      1.09861717	      0.92128428	      0.45735503	      4.44754731	     -2.92957350	    -14.39767587	     30.37192257	     30.37192257	     12.23967445	     -1.15437291	    -13.33825553	     28.49555422	     -4.97144546	     -0.67041905	     26.37194936	     26.37194936	      9.00142866	    -12.90632306	      7.56745653	     -9.29817230	      5.69380684	      3.91801660	     35.47127244	    -16.55593524	     -0.59240214	     93.14513877	     44.21296709	      0.00000000	      0.00000000	    -14.49356524	     -9.48981069	     24.64095780	     35.90168908	     43.61840124	      0.00000000	      0.00000000
     57.77135714	     -7.61000120	     -4.45735823	      1.87689246	      1.09876615	      0.92207691	      0.45537972	      6.14984251	     -3.55645409	    -13.59574430	     33.90676377	     33.90676377	     10.71756826	     -2.79792532	    -13.98890541	     27.88612913	     -4.88100776	     -0.91344558	     26.09855350	     26.09855350	      9.34079439	    -12.86695988	      7.40027985	     -9.28506214	      5.65626294	      3.82378906	     33.65195469	    -16.51197824	     -0.66036100	     92.31887754	     44.24392427	      0.00000000	      0.00000000	    -13.36911077	     -9.73555501	     24.16126996	     36.44619189	     43.70758245	      0.00000000	      0.00000000
     57.78328571	     -7.72487585	     -4.49768799	      1.66411033	      1.09869303	      0.92270055	      0.45365768	      8.05575866	     -3.92936286	    -12.49218440	     37.56816209	     37.56816209	      8.72847470	     -5.18319276	    -14.69712252	     27.35312893	     -4.88316109	     -1.08104155	     25.89430744	     25.89430744	      9.62939557	    -12.91560941	      7.17282168	     -9.27428032	      5.69210555	      3.86475515	     31.66793569	    -16.47747419	     -1.07326562	     91.24763468	     44.29815421	      0.00000000	      0.00000000	    -12.15910396	    -10.01848743	     23.35808294	     37.24391134	     43.84560926	      0.00000000	      0.00000000
     57.79521429	     -7.65633704	     -4.36937375	      1.46639096	      1.09851272	      0.92332302	      0.45197360	      9.94706118	     -4.54253841	    -11.53312831	     41.48299290	     41.48299290	      6.76151868	     -7.00080446	    -14.92935552	     26.70234293	     -4.75040065	     -1.39518157	     25.84732393	     25.84732393	      9.91832168	    -12.89339394	      6.97040097	     -9.52019356	      5.54316008	      3.71470277	     29.74240606	    -16.24260566	     -1.11772816	     90.17524906	     44.33361760	      0.00000000	      0.00000000	    -10.76428261	    -10.40239704	     22.76706748	     37.86171887	     43.94558688	      0.00000000	      0.00000000
     57.80714286	     -7.63379359	     -4.35515080	      1.27607311	      1.09816508	      0.92370364	      0.45041549	     12.03045831	     -4.89317708	    -10.42231549	     45.42514404	     45.42514404	      4.65833713	     -9.07899544	    -14.75709723	     26.13444272	     -4.69887708	     -1.53345968	     25.82370724	     25.82370724	     10.31376217	    -12.93265561	      6.73425864	     -9.69204797	      5.57224316	      3.62671049	     27.75601791	    -16.09784321	     -1.23531361	     88.80625671	     44.38005408	      0.00000000	      0.00000000	     -9.26663852	    -10.79329496	     22.13198265	     38.54460048	     44.04991902	      0.00000000	      0.00000000
     57.81907143	     -7.69225059	     -4.55098797	      1.07518591	      1.09753375	      0.92390643	      0.44931665	     14.35023778	     -4.68043323	     -8.95173617	     49.30797206	     49.30797206	      2.40718406	    -11.95688306	    -13.72074092	     25.76812250	     -4.89997942	     -1.58560603	     25.92926383	     25.92926383	     10.63000106	    -13.03451791	      6.42374316	     -9.73882741	      5.73123416	      3.83009817	     25.75237967	    -15.95324831	     -2.15342831	     86.40825756	     44.49615546	      0.00000000	      0.00000000	     -7.76034024	    -11.12193950	     20.84870731	     39.56625136	     44.24932506	      0.00000000	      0.00000000
     57.83100000	     -7.64341837	     -4.53097972	      0.88716806	      1.09685549	      0.92404637	      0.44813349	     16.69874452	     -4.83853896	     -7.82287425	     53.36226979	     53.36226979	      1.20089895	    -13.15575073	    -10.67291024	     25.26953858	     -4.88644271	     -1.77476933	     26.03221108	     26.03221108	     10.98634304	    -13.04842498	      6.07921622	     -9.91683150	      5.67941400	      3.39154406	     24.25301709	    -14.98709341	     -3.14616931	     83.40972288	     44.66385712	      0.00000000	      0.00000000	     -6.48690458	    -11.26863112	     18.45490167	     40.36195169	     44.62397445	      0.00000000	      0.00000000
     57.84292857	     -7.55059132	     -4.44489275	      0.72190163	      1.09601426	      0.92416168	      0.44692318	     18.94825189	     -5.03191379	     -6.80304245	     57.00582403	     57.00582403	     -0.59442146	    -14.55288192	     -9.90109871	     24.76667882	     -4.77714262	     -1.92270544	     26.19853506	     26.19853506	     11.36884406	    -13.19948334	      5.92139483	    -10.21277638	      5.61440766	      3.27223624	     22.20600816	    -14.95368352	     -2.83828558	     81.84326163	     44.70093893	      0.00000000	      0.00000000	     -4.63078294	    -11.80057055	     17.95681273	     40.93962644	     44.70953609	      0.00000000	      0.00000000
     57.85485714	     -7.53296273	     -4.59716766	      0.52851074	      1.09501735	      0.92427643	      0.44607614	     21.45070835	     -4.75464762	     -5.72916929	     60.69106965	     60.69106965	     -0.56171706	    -15.06085001	     -4.26638395	     24.35764521	     -4.92992326	     -1.93280555	     26.35107443	     26.35107443	     11.86980309	    -13.29565031	      5.94471567	    -10.29659342	      5.79032682	      3.09136909	     20.99100445	    -14.39723376	     -3.47649907	     77.34467178	     44.89853941	      0.00000000	      0.00000000	     -2.86390959	    -12.02172433	     16.60510130	     41.21557256	     44.95300156	      0.00000000	      0.00000000
     57.86678571	     -7.46225003	     -4.67448430	      0.33728091	      1.09397356	      0.92444257	      0.44525561	     23.70500377	     -4.58332895	     -4.87212441	     63.67932359	     63.67932359	     -1.66826244	    -16.08962835	     -3.17956457	     23.86020931	     -4.99775903	     -1.96613416	     26.44862948	     26.44862948	     12.28712868	    -13.46670841	      5.84540937	    -10.55784932	      5.91507959	      3.36316240	     18.89476882	    -14.69339620	     -3.33354583	     75.01141968	     44.96912001	      0.00000000	      0.00000000	     -0.81897275	    -12.46233523	     16.03900705	     42.00708151	     45.05579061	      0.00000000	      0.00000000
     57.87871429	     -7.35899056	     -4.70426353	      0.13405035	      1.09285635	      0.92476384	      0.44463012	     25.97276384	     -4.39707863	     -4.07156483	     66.44952045	     66.44952045	     -1.68393527	    -16.48007226	     -0.06582148	     23.27845620	     -5.03594729	     -2.05533920	     26.45878273	     26.45878273	     12.72476389	    -13.57008297	      5.88566995	    -10.79368044	      5.97324898	      3.13039586	     17.69468192	    -14.04359130	     -3.85337847	     70.62987814	     45.14280791	      0.00000000	      0.00000000	      1.07439996	    -12.94817962	     15.40387948	     42.30036731	     45.19078528	      0.00000000	      0.00000000
     57.89064286	     -7.33653938	     -4.72387030	     -0.11820137	      1.09165545	      0.92504743	      0.44414563	     28.20337997	     -4.20504703	     -3.39271973	     68.62046084	     68.62046084	     -2.21708334	    -17.14402639	      0.37146418	     22.72881419	     -5.06927021	     -2.16169661	     26.37416358	     26.37416358	     13.10729545	    -13.66159530	      5.80074483	    -11.04281354	      6.01595436	      3.40004247	     15.57226281	    -14.25392704	     -3.67244614	     68.39822761	     45.20445163	      0.00000000	      0.00000000	      3.08977616	    -13.43038532	     14.90906197	     43.17130596	     45.27800186	      0.00000000	      0.00000000
